#!OML:ASF F:\VICON\USERDATA\INSTALL\Justin_Nancy\Justin_Nancy.ASF
:FULLY-SPECIFIED
:DEGREES
445
root -15.7347 17.2086 21.7291 -0.847261 -43.5914 7.14397
lowerback 4.27865 -2.057 -6.9346
upperback -0.266506 -3.05318 1.83395
thorax -2.2161 -1.43344 5.98191
lowerneck -15.0002 -2.90312 -8.82917
upperneck 22.2925 -3.13201 4.8151
head 9.76131 -1.71236 2.75173
rclavicle -4.90998e-014 -1.82882e-014
rhumerus -34.6501 -14.1561 -78.1802
rradius 29.1331
rwrist 6.47213
rhand -13.2841 12.3587
rfingers 7.12502
rthumb 12.8193 -17.2277
lclavicle -4.90998e-014 -1.82882e-014
lhumerus -21.4135 6.94042 85.9923
lradius 27.3832
lwrist -9.38512
lhand -18.4552 24.0071
lfingers 7.12502
lthumb 7.83103 53.8421
rfemur -26.0265 1.4218 17.6763
rtibia 5.6963
rfoot -4.34052 -9.8375
rtoes -16.0265
lfemur 3.95094 1.68906 -31.0427
ltibia 17.9335
lfoot -17.0172 -3.69788
ltoes 1.92858
446
root -15.8379 17.201 21.8384 -0.995341 -43.8542 7.06462
lowerback 4.4212 -1.96486 -6.84868
upperback -0.255854 -2.93538 1.83873
thorax -2.30713 -1.3721 5.93954
lowerneck -14.8581 -2.65972 -8.74852
upperneck 22.3165 -2.80988 4.74775
head 9.71523 -1.56676 2.75755
rclavicle -8.33902e-014 5.56597e-015
rhumerus -34.9521 -13.2231 -78.5643
rradius 29.539
rwrist 5.46219
rhand -13.7679 11.2953
rfingers 7.12502
rthumb 12.3529 -18.3198
lclavicle -8.33902e-014 5.56597e-015
lhumerus -21.5023 6.9131 85.9893
lradius 27.4682
lwrist -9.18637
lhand -18.2681 24.1057
lfingers 7.12502
lthumb 8.0116 53.9338
rfemur -26.8811 1.46636 18.0755
rtibia 8.35818
rfoot -4.31689 -9.96266
rtoes -14.3816
lfemur 4.96922 1.52578 -30.9837
ltibia 17.4136
lfoot -16.6403 -3.68786
ltoes 2.11942
447
root -15.9397 17.193 21.9412 -0.870835 -44.0172 6.70807
lowerback 4.50852 -2.02438 -6.6656
upperback -0.255934 -3.00653 2.03776
thorax -2.34385 -1.40784 6.05281
lowerneck -14.867 -2.38687 -8.86582
upperneck 22.3912 -2.34503 4.52972
head 9.70801 -1.38744 2.76127
rclavicle 1.91827e-014 4.77083e-015
rhumerus -34.7263 -13.3114 -78.525
rradius 29.179
rwrist 6.09681
rhand -14.1995 10.7054
rfingers 7.12502
rthumb 11.9368 -18.9343
lclavicle 1.91827e-014 4.77083e-015
lhumerus -21.7862 7.39625 86.0509
lradius 27.7538
lwrist -9.13748
lhand -18.6524 24.1109
lfingers 7.12502
lthumb 7.6407 53.9528
rfemur -27.2385 1.40687 18.7149
rtibia 10.0639
rfoot -3.87669 -9.99027
rtoes -9.93626
lfemur 5.75982 1.37112 -30.6681
ltibia 17.1515
lfoot -16.29 -3.93991
ltoes 2.66513
448
root -16.0446 17.1745 22.0513 -0.970977 -44.0536 6.46079
lowerback 4.53326 -2.03596 -6.39508
upperback -0.0828442 -3.0045 2.1015
thorax -2.18796 -1.42136 5.96188
lowerneck -14.2794 -2.28617 -9.47315
upperneck 21.7904 -2.23888 5.13686
head 9.39132 -1.3168 3.08281
rclavicle -2.59414e-014 1.82882e-014
rhumerus -34.3589 -13.8938 -78.3974
rradius 28.6511
rwrist 6.96986
rhand -14.2237 10.8733
rfingers 7.12502
rthumb 11.9134 -18.7678
lclavicle -2.59414e-014 1.82882e-014
lhumerus -21.811 8.00446 86.0883
lradius 27.8749
lwrist -9.60439
lhand -18.6688 23.7592
lfingers 7.12502
lthumb 7.62484 53.6017
rfemur -27.2296 1.22036 19.2357
rtibia 11.4853
rfoot -3.86526 -9.83053
rtoes -3.9595
lfemur 6.71582 1.32295 -30.4225
ltibia 17.0022
lfoot -16.151 -4.04241
ltoes 0.784133
449
root -16.1584 17.1566 22.175 -1.27057 -44.1558 6.28142
lowerback 4.5452 -1.952 -6.04091
upperback 0.204546 -2.87211 1.99352
thorax -1.93842 -1.37679 5.63288
lowerneck -13.7224 -2.31298 -9.9465
upperneck 21.0344 -2.3883 5.97265
head 9.05012 -1.32729 3.42476
rclavicle 5.09883e-014 6.36111e-015
rhumerus -34.2744 -13.9895 -78.5159
rradius 28.4503
rwrist 6.9485
rhand -14.1238 11.2886
rfingers 7.12502
rthumb 12.0097 -18.3469
lclavicle 5.09883e-014 6.36111e-015
lhumerus -21.7005 8.07875 86.0495
lradius 27.9551
lwrist -9.53476
lhand -18.6181 23.7172
lfingers 7.12502
lthumb 7.6738 53.558
rfemur -26.8939 1.39623 19.5748
rtibia 12.7551
rfoot -4.38955 -9.02021
rtoes -4.93609
lfemur 7.83173 1.17389 -30.3267
ltibia 16.9215
lfoot -15.969 -3.82575
ltoes -2.23214
450
root -16.2738 17.1487 22.2825 -1.40465 -43.5244 6.51519
lowerback 4.4562 -2.10093 -6.26148
upperback 0.22841 -3.07733 1.93264
thorax -1.82666 -1.48252 5.69829
lowerneck -14.5008 -2.36785 -9.37803
upperneck 21.6448 -2.39904 5.36472
head 9.39492 -1.35124 3.12453
rclavicle 9.36276e-014 -1.35174e-014
rhumerus -34.7167 -13.3794 -78.5949
rradius 28.845
rwrist 6.12877
rhand -14.1616 10.9806
rfingers 7.12502
rthumb 11.9733 -18.657
lclavicle 9.36276e-014 -1.35174e-014
lhumerus -21.7838 8.16342 86.1303
lradius 28.1445
lwrist -9.45874
lhand -18.6725 23.9319
lfingers 7.12502
lthumb 7.62127 53.7746
rfemur -26.7219 1.19402 19.4529
rtibia 13.6682
rfoot -4.91681 -7.26257
rtoes -13.7278
lfemur 8.31569 0.884797 -30.3471
ltibia 17.0637
lfoot -15.6492 -4.47428
ltoes -3.36057
451
root -16.3924 17.1434 22.3922 -1.63744 -42.6987 6.84316
lowerback 4.52479 -2.34377 -6.53085
upperback 0.0567633 -3.42301 1.91266
thorax -1.97938 -1.64205 5.85425
lowerneck -14.953 -2.31433 -8.86869
upperneck 22.4133 -2.23574 4.54249
head 9.72372 -1.33439 2.7806
rclavicle -3.37934e-014 1.82882e-014
rhumerus -35.1633 -13.1112 -78.3688
rradius 28.7668
rwrist 5.9499
rhand -14.1283 10.6809
rfingers 7.12502
rthumb 12.0054 -18.9548
lclavicle -3.37934e-014 1.82882e-014
lhumerus -22.302 8.51386 86.1626
lradius 28.3818
lwrist -9.77583
lhand -18.6236 23.8989
lfingers 7.12502
lthumb 7.6685 53.7399
rfemur -26.1527 1.09366 19.0456
rtibia 14.208
rfoot -5.53677 -5.78574
rtoes -15.3987
lfemur 8.84348 0.30558 -30.4934
ltibia 17.1938
lfoot -15.2056 -4.95581
ltoes -4.69389
452
root -16.5119 17.1593 22.4853 -1.06493 -42.2008 6.23756
lowerback 4.52112 -2.52716 -6.23359
upperback -0.18688 -3.65165 2.14552
thorax -2.19961 -1.74332 5.94906
lowerneck -14.6367 -2.26806 -9.07208
upperneck 22.6001 -2.13949 4.45303
head 9.72574 -1.3268 2.79847
rclavicle 3.67752e-014 1.59028e-015
rhumerus -35.1336 -13.9347 -77.7828
rradius 27.7768
rwrist 7.15501
rhand -13.9464 11.228
rfingers 7.12502
rthumb 12.1807 -18.3974
lclavicle 3.67752e-014 1.59028e-015
lhumerus -22.9569 9.02728 86.1952
lradius 28.6975
lwrist -9.79455
lhand -18.6992 23.7213
lfingers 7.12502
lthumb 7.59552 53.5649
rfemur -25.6844 1.78577 19.2998
rtibia 14.3541
rfoot -5.2878 -5.28194
rtoes -11.1691
lfemur 9.0965 0.050929 -29.7958
ltibia 17.3188
lfoot -14.5486 -5.4696
ltoes -5.95881
453
root -16.653 17.1845 22.6208 -0.674167 -42.0714 5.76807
lowerback 4.02371 -2.58371 -5.81859
upperback -0.226123 -3.67668 2.21699
thorax -1.97816 -1.76776 5.762
lowerneck -14.7578 -2.27714 -9.08992
upperneck 22.9726 -2.13552 4.39963
head 9.88084 -1.34036 2.78805
rclavicle 5.70512e-014 -7.15625e-015
rhumerus -35.3142 -14.2809 -77.4524
rradius 27.2938
rwrist 7.7376
rhand -13.9121 11.4078
rfingers 7.12502
rthumb 12.2139 -18.2156
lclavicle 5.70512e-014 -7.15625e-015
lhumerus -23.5819 9.27343 86.1939
lradius 29.1312
lwrist -9.57444
lhand -18.6592 23.9419
lfingers 7.12502
lthumb 7.63414 53.7842
rfemur -25.2233 1.48197 19.894
rtibia 14.1064
rfoot -3.69703 -3.714
rtoes -12.4114
lfemur 9.57095 -0.383362 -29.4251
ltibia 17.5737
lfoot -13.7353 -5.5784
ltoes -5.43826
454
root -16.7942 17.2182 22.7472 -0.516483 -41.6654 5.88431
lowerback 3.47352 -2.73516 -5.95111
upperback -0.270095 -3.85531 2.17644
thorax -1.684 -1.86575 5.76887
lowerneck -15.0889 -2.16395 -8.68155
upperneck 23.2087 -1.95891 4.02444
head 10.0066 -1.26714 2.61185
rclavicle 1.44218e-013 -6.36111e-015
rhumerus -35.3428 -14.9867 -77.1035
rradius 26.834
rwrist 8.66411
rhand -13.6812 11.6146
rfingers 7.12502
rthumb 12.4365 -17.9954
lclavicle 1.44218e-013 -6.36111e-015
lhumerus -23.9982 9.63933 86.1385
lradius 29.37
lwrist -9.62524
lhand -18.9207 24.174
lfingers 7.12502
lthumb 7.38166 54.0253
rfemur -24.9125 1.15498 19.8537
rtibia 13.4556
rfoot -1.70294 -2.64449
rtoes -14.0434
lfemur 9.60672 -0.958954 -29.4471
ltibia 18.1391
lfoot -12.815 -5.91054
ltoes -4.60171
